<svg xmlns="http://www.w3.org/2000/svg" viewBox="0 0 462.02 440"><defs><style>.cls-1{fill:#5c6a6d;}</style></defs><g id="Capa_2" data-name="Capa 2"><g id="Layer_1" data-name="Layer 1"><path class="cls-1" d="M392.12,362.12a196.53,196.53,0,0,1-19.86,29.72c-17.53,21.72-38.09,38.92-66.42,44.55a3.94,3.94,0,0,0-2.87,1.77,2.46,2.46,0,0,0-.4.3c-.07.09-.15.3-.12.33,1.41,1.34,3.14.64,4.71.65q25.48.07,51,0c11.31,0,22.62-.2,33.94-.31h0c1.54-.9.81-2.39.82-3.59q.18-35.68.25-71.36C393.15,363.51,393.58,362.52,392.12,362.12Z"/><path class="cls-1" d="M170.26,437.12h0c-1.34-.62-2.65-1.31-4-1.84a147.16,147.16,0,0,1-56.69-38.63C97.76,383.81,88.35,369.41,80,354.23h0a17.08,17.08,0,0,0-2.85-6.18h0c0-1.35-.7-2.32-2.21-4.29v5.57q0,34.49,0,69c0,6.17,0,12.33,0,18.5,0,1.87.15,3.29,2.6,3.19,8.64-.34,17.3.4,25.93-.59H173.7v-.9Z"/><path class="cls-1" d="M460.22,53.14c-2-2.65-4.41-5.23-8.05-6.1a60.84,60.84,0,0,0-12.3-1.93c-14.68-.46-28.89,2.8-43.19,5.34-4,.71-8.2,1.16-11.61,3.81a13.47,13.47,0,0,0-8,1,25.76,25.76,0,0,0-2.89.53c-17.56,5.14-35.32,9.64-52.43,16.24l-3.69,1.2c-3,1-6,1.86-9,2.87-10.12,3.45-20.27,6.8-31,7.84-5.64.55-7.43.15-9.8-2.25,21.35-6.51,42.4-13.7,63-22.06,14.71-6,25.18-16.68,32.37-30.5,3.53-6.77,4.77-14.19,1.66-21.73-2.21-5.34-5.61-7.69-11.21-7.11a39.7,39.7,0,0,0-8.73,1.79C328.57,7.81,313.5,16.87,299,27a31.47,31.47,0,0,0-7.92,5.23h0c-11.84,7.42-22.9,15.93-34,24.37-6.68,5.08-6.67,5.09-8.26-2.84-.09-.49-.28-1-.4-1.44-5.7-23.38-20.73-38.45-42.54-47.22-10.59-4.25-21.57-6.57-33.06-4a4.84,4.84,0,0,1,1.09.44l.09,0-.06.06s.06.05.07.08c.22.66-.47.55-.82.56-1.09,0-2.22.2-3-.79a20,20,0,0,0-8.35,3.06c-9.58,5.54-11.61,14.46-5.37,23.61a70.38,70.38,0,0,0,12.25,13.09c17.52,15.27,37.15,27.49,57,39.4,1,.63,2.49.87,3,2.81-12.7,0-25.12,0-37.55,0a10,10,0,0,1-3.77-1.16,356,356,0,0,0-75-24.58c-30.3-6.16-60.71-7.78-91.13-.5A73.26,73.26,0,0,0,4.74,62.68C1.68,64.25-1,67.1.38,70.69,1.65,74,5.07,72.81,7.86,72.17a233.44,233.44,0,0,1,33.46-5.39C80.4,63.51,118,69.24,153.92,85.13c1,.46,2.65.43,2.65,2.36-.92,0-1.74,0-2.57,0l-78.92-.23c-3.08.79-1.53,3.3-1.54,4.9q-.18,50.82-.11,101.63c0,2-.37,4.08.1,6,.62,2.47,1.26.87,1.69-.26h0c10.32-18.5,21.64-36.3,35.51-52.42,29.8-34.63,67.17-54.85,112.89-57.69,42.79-2.67,82.32,9.31,119.57,29.78,3.35,1.83,3.1,3.22,1.06,5.92-8.14,10.76-16.05,21.68-24.07,32.54-6.31,8.54-6.33,8.55-15.53,3.36-37.06-20.91-75.59-21.24-114.78-7.48-21,7.37-36.23,22.25-49.44,39.81-41.11,54.62-34.28,127.29,16.85,172.62,17.42,15.44,37.69,25.44,60.84,29.19l1.77.2h0a46.79,46.79,0,0,0,16.22,1.83h9a91.18,91.18,0,0,0,31.2-4.86l3.81-1.1c28.88-8.84,51.17-26.49,68-51.24,12-17.62,18-37.38,19.85-58.49.31-3.54,1.29-3.85,4.18-2.26,5.68,3.13,11.61,5.83,17.22,9.08,3.85,2.22,4.77,1.66,4.76-2.86q-.16-98.48,0-197c0-4-1.16-5.07-5.06-5-21.5.17-43,.1-64.49.06-1.54,0-3.2.55-4.75-.54.92-1.29,2.34-1.36,3.54-1.7,23-6.64,46.3-12.34,69.62-17.86,9.21-2.19,18.38-4.81,28-5,11.06-.24,15.28,3.1,16.7,13.4,6.44-2.39,12.83-4.74,19.2-7.14C462,62.67,463.65,57.58,460.22,53.14ZM223.07,56.27h0l-1.82-.14c-16.6-4-28.34-14.8-38.74-27.46-2.13-2.6-5.52-5.65-3.16-9.19s6.55-2.32,10.13-1.71a31.12,31.12,0,0,1,13.89,6.44c10.74,8.31,18.07,19.3,24.57,31.06C226.32,56.68,224.55,55.75,223.07,56.27Zm37.17,15.55a27.25,27.25,0,0,1-3.91-.87c21.22-14.93,41.48-29.2,61.76-43.43,5.18-3.63,10.38-7.24,15.72-10.61,3.16-2,7.05-3.62,10.17-.7,3.3,3.1,2.6,7.25.61,11.11C339.4,37.42,331.3,44.78,322,50.77c-17.35,11.12-36.43,17.74-56.73,20.92A25.1,25.1,0,0,1,260.24,71.82Z"/></g></g></svg>